<svg width="256" height="256" viewBox="0 0 256 256" fill="none" xmlns="http://www.w3.org/2000/svg">
<path d="M36.182 65.4719H18.1729L14.6287 78H2.43027L22.0879 17.9969H32.5967L51.8834 78H39.685L36.182 65.4719ZM21.0164 55.6225H33.4621L27.3217 33.5334L21.0164 55.6225ZM57.282 78V17.9969H77.4342C80.7036 17.9969 83.6708 18.3266 86.3357 18.9859C89.0282 19.6453 91.3223 20.6481 93.218 21.9943C95.1137 23.3406 96.5698 25.0439 97.5863 27.1045C98.6303 29.165 99.1523 31.5965 99.1523 34.3988C99.1249 37.2012 98.3693 39.715 96.8857 41.9404C95.4296 44.1658 93.2729 45.8555 90.4156 47.0094C92.1465 47.449 93.6438 48.1083 94.9076 48.9875C96.1714 49.8667 97.2154 50.9107 98.0396 52.1195C98.8913 53.3009 99.5095 54.6059 99.8941 56.0346C100.306 57.4357 100.512 58.8919 100.512 60.4029C100.512 63.2877 100.018 65.829 99.0287 68.027C98.0396 70.2249 96.6247 72.0656 94.784 73.5492C92.9432 75.0328 90.7041 76.1455 88.0666 76.8873C85.4291 77.6291 82.4619 78 79.165 78H57.282ZM68.9035 51.5426V68.6451H79.2063C82.3658 68.6176 84.7697 67.8484 86.4182 66.3373C88.0941 64.7988 88.932 62.7932 88.932 60.3205C88.9595 57.5731 88.2177 55.4301 86.7066 53.8916C85.1956 52.3531 82.8603 51.5701 79.7008 51.5426H68.9035ZM68.9035 43.1768H77.5166C80.7311 43.1493 83.2037 42.4762 84.9346 41.1574C86.6654 39.8387 87.5446 37.9018 87.5721 35.3467C87.5721 32.5443 86.7066 30.5387 84.9758 29.3299C83.2449 28.0936 80.7448 27.4617 77.4754 27.4342H68.9035V43.1768ZM149.924 52.408C149.924 56.2544 149.416 59.7985 148.399 63.0404C147.383 66.2824 145.913 69.071 143.99 71.4062C142.067 73.7415 139.718 75.5686 136.943 76.8873C134.195 78.1786 131.091 78.8242 127.629 78.8242C124.167 78.8242 121.09 78.1786 118.398 76.8873C115.705 75.5686 113.439 73.7415 111.598 71.4062C109.757 69.0435 108.356 66.2549 107.395 63.0404C106.433 59.7985 105.952 56.2544 105.952 52.408V43.6713C105.952 39.8249 106.433 36.2808 107.395 33.0389C108.356 29.7969 109.757 27.0083 111.598 24.673C113.439 22.3103 115.692 20.4695 118.357 19.1508C121.049 17.832 124.126 17.1727 127.588 17.1727C131.077 17.1727 134.195 17.832 136.943 19.1508C139.718 20.4695 142.067 22.3103 143.99 24.673C145.913 27.0083 147.383 29.7969 148.399 33.0389C149.416 36.2808 149.924 39.8249 149.924 43.6713V52.408ZM138.179 43.5889C138.179 41.1437 137.973 38.8908 137.561 36.8303C137.176 34.7697 136.558 32.9977 135.706 31.5141C134.855 30.0305 133.756 28.8766 132.41 28.0523C131.091 27.2007 129.484 26.7748 127.588 26.7748C125.72 26.7748 124.154 27.2007 122.89 28.0523C121.626 28.8766 120.61 30.0305 119.84 31.5141C119.071 32.9977 118.521 34.7697 118.192 36.8303C117.862 38.8908 117.697 41.1437 117.697 43.5889V52.408C117.697 54.8257 117.862 57.0648 118.192 59.1254C118.521 61.1859 119.071 62.9717 119.84 64.4828C120.61 65.9939 121.626 67.1753 122.89 68.027C124.154 68.8786 125.733 69.3045 127.629 69.3045C129.497 69.3045 131.091 68.8786 132.41 68.027C133.756 67.1753 134.841 66.0076 135.665 64.524C136.517 63.013 137.149 61.2271 137.561 59.1666C137.973 57.1061 138.179 54.8532 138.179 52.408V43.5889ZM198.718 17.9969L198.759 57.7654C198.759 61.1173 198.292 64.0982 197.358 66.7082C196.451 69.3182 195.119 71.5299 193.361 73.3432C191.63 75.129 189.5 76.4889 186.973 77.423C184.473 78.3572 181.615 78.8242 178.401 78.8242C175.379 78.8242 172.645 78.3572 170.2 77.423C167.782 76.4889 165.708 75.129 163.977 73.3432C162.246 71.5574 160.9 69.3594 159.938 66.7494C159.004 64.1119 158.537 61.1173 158.537 57.7654L158.579 17.9969H170.159L170.2 57.7654C170.227 61.6393 170.928 64.5652 172.302 66.5434C173.703 68.5215 175.736 69.5105 178.401 69.5105C181.231 69.5105 183.388 68.5215 184.871 66.5434C186.382 64.5652 187.151 61.6393 187.179 57.7654L187.22 17.9969H198.718ZM253.529 27.4342H235.025V78H223.403V27.4342H205.147V17.9969H253.529V27.4342Z" fill="white"/>
<path d="M35.182 144.472H17.1729L13.6287 157H1.43027L21.0879 96.9969H31.5967L50.8834 157H38.685L35.182 144.472ZM20.0164 134.622H32.4621L26.3217 112.533L20.0164 134.622ZM56.282 157V96.9969H76.4342C79.7036 96.9969 82.6708 97.3266 85.3357 97.9859C88.0282 98.6453 90.3223 99.6481 92.218 100.994C94.1137 102.341 95.5698 104.044 96.5863 106.104C97.6303 108.165 98.1523 110.596 98.1523 113.399C98.1249 116.201 97.3693 118.715 95.8857 120.94C94.4296 123.166 92.2729 124.855 89.4156 126.009C91.1465 126.449 92.6438 127.108 93.9076 127.987C95.1714 128.867 96.2154 129.911 97.0396 131.12C97.8913 132.301 98.5095 133.606 98.8941 135.035C99.3063 136.436 99.5123 137.892 99.5123 139.403C99.5123 142.288 99.0178 144.829 98.0287 147.027C97.0396 149.225 95.6247 151.066 93.784 152.549C91.9432 154.033 89.7041 155.146 87.0666 155.887C84.4291 156.629 81.4619 157 78.165 157H56.282ZM67.9035 130.543V147.645H78.2063C81.3658 147.618 83.7697 146.848 85.4182 145.337C87.0941 143.799 87.932 141.793 87.932 139.321C87.9595 136.573 87.2177 134.43 85.7066 132.892C84.1956 131.353 81.8603 130.57 78.7008 130.543H67.9035ZM67.9035 122.177H76.5166C79.7311 122.149 82.2037 121.476 83.9346 120.157C85.6654 118.839 86.5446 116.902 86.5721 114.347C86.5721 111.544 85.7066 109.539 83.9758 108.33C82.2449 107.094 79.7448 106.462 76.4754 106.434H67.9035V122.177ZM148.924 131.408C148.924 135.254 148.416 138.799 147.399 142.04C146.383 145.282 144.913 148.071 142.99 150.406C141.067 152.742 138.718 154.569 135.943 155.887C133.195 157.179 130.091 157.824 126.629 157.824C123.167 157.824 120.09 157.179 117.398 155.887C114.705 154.569 112.439 152.742 110.598 150.406C108.757 148.043 107.356 145.255 106.395 142.04C105.433 138.799 104.952 135.254 104.952 131.408V122.671C104.952 118.825 105.433 115.281 106.395 112.039C107.356 108.797 108.757 106.008 110.598 103.673C112.439 101.31 114.692 99.4695 117.357 98.1508C120.049 96.832 123.126 96.1727 126.588 96.1727C130.077 96.1727 133.195 96.832 135.943 98.1508C138.718 99.4695 141.067 101.31 142.99 103.673C144.913 106.008 146.383 108.797 147.399 112.039C148.416 115.281 148.924 118.825 148.924 122.671V131.408ZM137.179 122.589C137.179 120.144 136.973 117.891 136.561 115.83C136.176 113.77 135.558 111.998 134.706 110.514C133.855 109.03 132.756 107.877 131.41 107.052C130.091 106.201 128.484 105.775 126.588 105.775C124.72 105.775 123.154 106.201 121.89 107.052C120.626 107.877 119.61 109.03 118.84 110.514C118.071 111.998 117.521 113.77 117.192 115.83C116.862 117.891 116.697 120.144 116.697 122.589V131.408C116.697 133.826 116.862 136.065 117.192 138.125C117.521 140.186 118.071 141.972 118.84 143.483C119.61 144.994 120.626 146.175 121.89 147.027C123.154 147.879 124.733 148.304 126.629 148.304C128.497 148.304 130.091 147.879 131.41 147.027C132.756 146.175 133.841 145.008 134.665 143.524C135.517 142.013 136.149 140.227 136.561 138.167C136.973 136.106 137.179 133.853 137.179 131.408V122.589ZM197.718 96.9969L197.759 136.765C197.759 140.117 197.292 143.098 196.358 145.708C195.451 148.318 194.119 150.53 192.361 152.343C190.63 154.129 188.5 155.489 185.973 156.423C183.473 157.357 180.615 157.824 177.401 157.824C174.379 157.824 171.645 157.357 169.2 156.423C166.782 155.489 164.708 154.129 162.977 152.343C161.246 150.557 159.9 148.359 158.938 145.749C158.004 143.112 157.537 140.117 157.537 136.765L157.579 96.9969H169.159L169.2 136.765C169.227 140.639 169.928 143.565 171.302 145.543C172.703 147.521 174.736 148.511 177.401 148.511C180.231 148.511 182.388 147.521 183.871 145.543C185.382 143.565 186.151 140.639 186.179 136.765L186.22 96.9969H197.718ZM252.529 106.434H234.025V157H222.403V106.434H204.147V96.9969H252.529V106.434Z" fill="white"/>
<path d="M36.182 222.472H18.1729L14.6287 235H2.43027L22.0879 174.997H32.5967L51.8834 235H39.685L36.182 222.472ZM21.0164 212.622H33.4621L27.3217 190.533L21.0164 212.622ZM57.282 235V174.997H77.4342C80.7036 174.997 83.6708 175.327 86.3357 175.986C89.0282 176.645 91.3223 177.648 93.218 178.994C95.1137 180.341 96.5698 182.044 97.5863 184.104C98.6303 186.165 99.1523 188.596 99.1523 191.399C99.1249 194.201 98.3693 196.715 96.8857 198.94C95.4296 201.166 93.2729 202.855 90.4156 204.009C92.1465 204.449 93.6438 205.108 94.9076 205.987C96.1714 206.867 97.2154 207.911 98.0396 209.12C98.8913 210.301 99.5095 211.606 99.8941 213.035C100.306 214.436 100.512 215.892 100.512 217.403C100.512 220.288 100.018 222.829 99.0287 225.027C98.0396 227.225 96.6247 229.066 94.784 230.549C92.9432 232.033 90.7041 233.146 88.0666 233.887C85.4291 234.629 82.4619 235 79.165 235H57.282ZM68.9035 208.543V225.645H79.2063C82.3658 225.618 84.7697 224.848 86.4182 223.337C88.0941 221.799 88.932 219.793 88.932 217.321C88.9595 214.573 88.2177 212.43 86.7066 210.892C85.1956 209.353 82.8603 208.57 79.7008 208.543H68.9035ZM68.9035 200.177H77.5166C80.7311 200.149 83.2037 199.476 84.9346 198.157C86.6654 196.839 87.5446 194.902 87.5721 192.347C87.5721 189.544 86.7066 187.539 84.9758 186.33C83.2449 185.094 80.7448 184.462 77.4754 184.434H68.9035V200.177ZM149.924 209.408C149.924 213.254 149.416 216.799 148.399 220.04C147.383 223.282 145.913 226.071 143.99 228.406C142.067 230.742 139.718 232.569 136.943 233.887C134.195 235.179 131.091 235.824 127.629 235.824C124.167 235.824 121.09 235.179 118.398 233.887C115.705 232.569 113.439 230.742 111.598 228.406C109.757 226.043 108.356 223.255 107.395 220.04C106.433 216.799 105.952 213.254 105.952 209.408V200.671C105.952 196.825 106.433 193.281 107.395 190.039C108.356 186.797 109.757 184.008 111.598 181.673C113.439 179.31 115.692 177.47 118.357 176.151C121.049 174.832 124.126 174.173 127.588 174.173C131.077 174.173 134.195 174.832 136.943 176.151C139.718 177.47 142.067 179.31 143.99 181.673C145.913 184.008 147.383 186.797 148.399 190.039C149.416 193.281 149.924 196.825 149.924 200.671V209.408ZM138.179 200.589C138.179 198.144 137.973 195.891 137.561 193.83C137.176 191.77 136.558 189.998 135.706 188.514C134.855 187.03 133.756 185.877 132.41 185.052C131.091 184.201 129.484 183.775 127.588 183.775C125.72 183.775 124.154 184.201 122.89 185.052C121.626 185.877 120.61 187.03 119.84 188.514C119.071 189.998 118.521 191.77 118.192 193.83C117.862 195.891 117.697 198.144 117.697 200.589V209.408C117.697 211.826 117.862 214.065 118.192 216.125C118.521 218.186 119.071 219.972 119.84 221.483C120.61 222.994 121.626 224.175 122.89 225.027C124.154 225.879 125.733 226.304 127.629 226.304C129.497 226.304 131.091 225.879 132.41 225.027C133.756 224.175 134.841 223.008 135.665 221.524C136.517 220.013 137.149 218.227 137.561 216.167C137.973 214.106 138.179 211.853 138.179 209.408V200.589ZM198.718 174.997L198.759 214.765C198.759 218.117 198.292 221.098 197.358 223.708C196.451 226.318 195.119 228.53 193.361 230.343C191.63 232.129 189.5 233.489 186.973 234.423C184.473 235.357 181.615 235.824 178.401 235.824C175.379 235.824 172.645 235.357 170.2 234.423C167.782 233.489 165.708 232.129 163.977 230.343C162.246 228.557 160.9 226.359 159.938 223.749C159.004 221.112 158.537 218.117 158.537 214.765L158.579 174.997H170.159L170.2 214.765C170.227 218.639 170.928 221.565 172.302 223.543C173.703 225.521 175.736 226.511 178.401 226.511C181.231 226.511 183.388 225.521 184.871 223.543C186.382 221.565 187.151 218.639 187.179 214.765L187.22 174.997H198.718ZM253.529 184.434H235.025V235H223.403V184.434H205.147V174.997H253.529V184.434Z" fill="white"/>
</svg>
