<?xml version="1.0" encoding="iso-8859-1"?>
<!-- Generator: Adobe Illustrator 19.0.0, SVG Export Plug-In . SVG Version: 6.00 Build 0)  -->
<svg version="1.1" id="Capa_1" xmlns="http://www.w3.org/2000/svg" xmlns:xlink="http://www.w3.org/1999/xlink" x="0px" y="0px"
	 viewBox="0 0 512.004 512.004" style="enable-background:new 0 0 512.004 512.004;" xml:space="preserve" fill="white">
<g>
	<g>
		<path d="M185.235,326.77c-3.328-3.337-8.738-3.337-12.066,0L2.502,497.437c-3.336,3.337-3.336,8.73,0,12.066
			c1.664,1.664,3.849,2.5,6.033,2.5c2.185,0,4.369-0.836,6.033-2.5l170.667-170.667C188.572,335.5,188.572,330.107,185.235,326.77z"
			/>
	</g>
</g>
<g>
	<g>
		<path d="M110.935,494.937H17.069v-102.4c0-4.71-3.823-8.533-8.533-8.533s-8.533,3.823-8.533,8.533V503.47
			c0,4.71,3.823,8.533,8.533,8.533h102.4c4.71,0,8.533-3.823,8.533-8.533S115.646,494.937,110.935,494.937z"/>
	</g>
</g>
<g>
	<g>
		<path d="M509.502,2.504c-3.328-3.337-8.738-3.337-12.066,0L326.769,173.17c-3.337,3.337-3.337,8.73,0,12.066
			c1.664,1.664,3.849,2.5,6.033,2.5c2.185,0,4.369-0.836,6.033-2.5L509.502,14.57C512.838,11.233,512.838,5.84,509.502,2.504z"/>
	</g>
</g>
<g>
	<g>
		<path d="M503.469,0.003h-102.4c-4.71,0-8.533,3.823-8.533,8.533s3.823,8.533,8.533,8.533h93.867v102.4
			c0,4.71,3.823,8.533,8.533,8.533s8.533-3.823,8.533-8.533V8.537C512.002,3.826,508.179,0.003,503.469,0.003z"/>
	</g>
</g>
<g>
	<g>
		<path d="M256.002,187.737c-37.641,0-68.267,30.626-68.267,68.267c0,37.641,30.626,68.267,68.267,68.267
			c37.641,0,68.267-30.626,68.267-68.267C324.269,218.363,293.643,187.737,256.002,187.737z M256.002,307.203
			c-28.228,0-51.2-22.963-51.2-51.2s22.972-51.2,51.2-51.2s51.2,22.963,51.2,51.2C307.202,284.24,284.23,307.203,256.002,307.203z"
			/>
	</g>
</g>
<g>
	<g>
		<path d="M185.235,173.17L14.569,2.503c-3.328-3.336-8.738-3.336-12.066,0c-3.336,3.337-3.336,8.73,0,12.066l170.667,170.667
			c1.664,1.664,3.849,2.5,6.033,2.5c2.185,0,4.369-0.836,6.033-2.5C188.572,181.9,188.572,176.507,185.235,173.17z"/>
	</g>
</g>
<g>
	<g>
		<path d="M119.469,0.003H8.535c-4.71,0-8.533,3.823-8.533,8.533v102.4c0,4.71,3.823,8.533,8.533,8.533s8.533-3.823,8.533-8.533
			V17.07h102.4c4.71,0,8.533-3.823,8.533-8.533S124.179,0.003,119.469,0.003z"/>
	</g>
</g>
<g>
	<g>
		<path d="M509.502,497.437L338.835,326.77c-3.328-3.337-8.738-3.337-12.066,0c-3.337,3.337-3.337,8.73,0,12.066l170.667,170.667
			c1.664,1.664,3.849,2.5,6.033,2.5c2.185,0,4.369-0.836,6.033-2.5C512.838,506.166,512.838,500.773,509.502,497.437z"/>
	</g>
</g>
<g>
	<g>
		<path d="M503.469,392.537c-4.71,0-8.533,3.823-8.533,8.533v93.867h-102.4c-4.71,0-8.533,3.823-8.533,8.533
			s3.823,8.533,8.533,8.533h110.933c4.71,0,8.533-3.823,8.533-8.533v-102.4C512.002,396.36,508.179,392.537,503.469,392.537z"/>
	</g>
</g>
<g>
</g>
<g>
</g>
<g>
</g>
<g>
</g>
<g>
</g>
<g>
</g>
<g>
</g>
<g>
</g>
<g>
</g>
<g>
</g>
<g>
</g>
<g>
</g>
<g>
</g>
<g>
</g>
<g>
</g>
</svg>
