<svg width="41" height="57" viewBox="0 0 41 57" fill="none" xmlns="http://www.w3.org/2000/svg">
<path d="M11.7969 36.1406V57H0.820312V0.125H20.2734C23.3724 0.125 26.1719 0.580729 28.6719 1.49219C31.1719 2.3776 33.2943 3.6276 35.0391 5.24219C36.8099 6.83073 38.1641 8.74479 39.1016 10.9844C40.0651 13.224 40.5469 15.7109 40.5469 18.4453C40.5469 20.9974 40.0651 23.3542 39.1016 25.5156C38.1641 27.6771 36.8099 29.5521 35.0391 31.1406C33.2943 32.7031 31.1719 33.9271 28.6719 34.8125C26.1719 35.6979 23.3724 36.1406 20.2734 36.1406H11.7969ZM11.7969 27.2344H20.2734C21.8359 27.2344 23.1901 27 24.3359 26.5312C25.4818 26.0625 26.4323 25.4245 27.1875 24.6172C27.9688 23.8099 28.5417 22.8854 28.9062 21.8438C29.2969 20.776 29.4922 19.6693 29.4922 18.5234C29.4922 17.1953 29.2969 15.9583 28.9062 14.8125C28.5417 13.6667 27.9688 12.6641 27.1875 11.8047C26.4323 10.9453 25.4818 10.2682 24.3359 9.77344C23.1901 9.27865 21.8359 9.03125 20.2734 9.03125H11.7969V27.2344Z" fill="white"/>
</svg>
